<svg width="155" height="70" viewBox="0 0 155 70" fill="none" xmlns="http://www.w3.org/2000/svg">
<path d="M80.0833 17.4999C95.7168 -5.77636 148.332 2.67021 149.833 31.6791C149.724 43.5607 137.931 51.2303 137.931 51.2303L144.388 67.3076L126.184 55.9969C107.07 59.6311 90.9957 58.1409 81.3749 47.1153" stroke="url(#paint0_linear)" stroke-width="4" stroke-linecap="round" stroke-linejoin="round"/>
<path d="M108.267 42.2461C107.947 42.4261 107.617 42.5761 107.277 42.6961C106.937 42.8161 106.497 42.9161 105.957 42.9961C105.657 40.9361 105.357 39.1261 105.057 37.5661C104.757 36.0061 104.447 34.5761 104.127 33.2761C102.707 33.2561 101.317 33.2961 99.957 33.3961C98.597 33.4761 97.327 33.6061 96.147 33.7861C95.727 34.8261 95.257 35.8961 94.737 36.9961C94.237 38.0961 93.677 39.2561 93.057 40.4761C92.677 40.3961 92.317 40.2661 91.977 40.0861C91.637 39.9261 91.307 39.6961 90.987 39.3961C92.767 36.2561 94.217 33.1861 95.337 30.1861C96.477 27.1661 97.577 23.3361 98.637 18.6961C99.177 18.7161 99.627 18.7461 99.987 18.7861C100.347 18.8261 100.697 18.8861 101.037 18.9661C102.997 22.7661 104.507 26.3961 105.567 29.8561C106.647 33.3161 107.547 37.4461 108.267 42.2461ZM99.897 21.5161C99.417 23.6161 98.927 25.5161 98.427 27.2161C97.947 28.8961 97.417 30.4961 96.837 32.0161C97.797 31.8761 98.847 31.7661 99.987 31.6861C101.127 31.5861 102.357 31.5161 103.677 31.4761C103.177 29.7161 102.627 28.0361 102.027 26.4361C101.427 24.8361 100.717 23.1961 99.897 21.5161ZM115.622 31.2061C117.062 32.2461 118.002 33.1361 118.442 33.8761C118.902 34.5961 119.132 35.3961 119.132 36.2761C119.132 37.6561 118.692 38.7961 117.812 39.6961C116.932 40.5961 115.812 41.0461 114.452 41.0461C113.032 41.0461 111.872 40.5361 110.972 39.5161C110.092 38.4961 109.652 37.1461 109.652 35.4661C109.952 35.3661 110.262 35.2961 110.582 35.2561C110.922 35.1961 111.252 35.1761 111.572 35.1961C111.532 36.5361 111.762 37.5861 112.262 38.3461C112.782 39.1061 113.522 39.4861 114.482 39.4861C115.202 39.4861 115.772 39.2461 116.192 38.7661C116.632 38.2661 116.852 37.5961 116.852 36.7561C116.852 36.0761 116.662 35.4461 116.282 34.8661C115.902 34.2661 115.082 33.5061 113.822 32.5861C112.342 31.5061 111.372 30.5861 110.912 29.8261C110.452 29.0461 110.222 28.1861 110.222 27.2461C110.222 25.9861 110.602 24.9861 111.362 24.2461C112.122 23.4861 113.152 23.1061 114.452 23.1061C115.692 23.1061 116.662 23.4661 117.362 24.1861C118.082 24.9061 118.582 26.0561 118.862 27.6361C118.562 27.7761 118.252 27.8861 117.932 27.9661C117.632 28.0261 117.312 28.0761 116.972 28.1161C116.812 26.9361 116.522 26.0761 116.102 25.5361C115.702 24.9961 115.142 24.7261 114.422 24.7261C113.822 24.7261 113.342 24.9261 112.982 25.3261C112.642 25.7261 112.472 26.2661 112.472 26.9461C112.472 27.6461 112.672 28.2961 113.072 28.8961C113.472 29.4961 114.322 30.2661 115.622 31.2061ZM123.843 32.7661C123.843 34.2461 123.883 35.6661 123.963 37.0261C124.043 38.3861 124.173 39.7461 124.353 41.1061C124.013 41.1861 123.653 41.2461 123.273 41.2861C122.893 41.3261 122.563 41.3461 122.283 41.3461C122.043 38.9661 121.883 37.0161 121.803 35.4961C121.723 33.9761 121.683 32.3861 121.683 30.7261C121.683 28.5261 121.753 26.3061 121.893 24.0661C122.053 21.8261 122.273 19.7461 122.553 17.8261C122.993 17.7861 123.443 17.7861 123.903 17.8261C124.363 17.8661 124.743 17.9361 125.043 18.0361C124.703 20.1561 124.433 22.2561 124.233 24.3361C124.033 26.3961 123.913 28.4461 123.873 30.4861C125.293 29.2461 126.493 28.0561 127.473 26.9161C128.473 25.7561 129.543 24.2861 130.683 22.5061C130.983 22.6461 131.263 22.8361 131.523 23.0761C131.803 23.2961 132.043 23.5361 132.243 23.7961C131.223 25.3361 130.253 26.6161 129.333 27.6361C128.433 28.6561 127.333 29.7061 126.033 30.7861C126.933 32.1061 127.893 33.2561 128.913 34.2361C129.933 35.1961 131.283 36.2461 132.963 37.3861C132.623 37.8861 132.333 38.2561 132.093 38.4961C131.873 38.7361 131.633 38.9261 131.373 39.0661C130.093 38.0661 128.973 37.0561 128.013 36.0361C127.053 34.9961 125.933 33.6161 124.653 31.8961C124.513 31.9961 124.373 32.1061 124.233 32.2261C124.113 32.3261 123.983 32.4261 123.843 32.5261C123.843 32.5661 123.843 32.6061 123.843 32.6461C123.843 32.6861 123.843 32.7261 123.843 32.7661Z" fill="#9AAE04"/>
<path d="M6.71969 32.0539V32.6539C6.71969 34.6539 7.11969 36.2139 7.91969 37.3339C8.73969 38.4539 9.84969 39.0139 11.2497 39.0139C12.1497 39.0139 12.8697 38.9339 13.4097 38.7739C13.9497 38.5939 14.6297 38.2239 15.4497 37.6639C15.7697 37.8039 15.9497 38.0439 15.9897 38.3839C14.6097 39.8839 12.9997 40.6439 11.1597 40.6639C8.85969 40.6639 7.01969 39.9439 5.63969 38.5039C4.25969 37.0639 3.55969 35.1139 3.53969 32.6539C3.55969 30.1339 4.27969 28.1739 5.69969 26.7739C7.13969 25.3539 8.90969 24.6439 11.0097 24.6439C12.7097 24.6439 13.9997 25.2239 14.8797 26.3839C15.7797 27.5239 16.2297 29.0739 16.2297 31.0339C16.2297 31.3739 16.2197 31.6339 16.1997 31.8139L15.7797 32.1439L6.71969 32.0539ZM10.9797 25.9339C10.0397 25.9339 9.16969 26.3639 8.36969 27.2239C7.58969 28.0639 7.07969 29.2639 6.83969 30.8239L13.3797 30.4639C13.3797 28.8639 13.1997 27.7139 12.8397 27.0139C12.4997 26.2939 11.8797 25.9339 10.9797 25.9339ZM25.1195 41.0539L19.1795 26.6539L16.8695 26.0539C16.8095 25.6739 16.8595 25.3239 17.0195 25.0039C18.6195 25.1039 19.8395 25.1539 20.6795 25.1539C21.4195 25.1539 22.7095 25.1039 24.5495 25.0039C24.6095 25.3839 24.5895 25.7339 24.4895 26.0539C23.4895 26.2339 22.7995 26.4339 22.4195 26.6539L24.9995 33.2539C25.5995 34.7939 26.0195 36.1539 26.2595 37.3339H26.3495C26.7495 35.7739 27.0795 34.6439 27.3395 33.9439L30.1895 26.6539L27.8195 26.0539C27.7595 25.6739 27.8095 25.3239 27.9695 25.0039C29.3695 25.1039 30.3995 25.1539 31.0595 25.1539C31.7795 25.1539 32.8195 25.1039 34.1795 25.0039C34.2395 25.3839 34.2195 25.7339 34.1195 26.0539C33.0595 26.2339 32.3495 26.4339 31.9895 26.6539L26.4695 40.6639C26.0495 40.8839 25.5995 41.0139 25.1195 41.0539ZM37.6865 32.0539V32.6539C37.6865 34.6539 38.0865 36.2139 38.8865 37.3339C39.7065 38.4539 40.8165 39.0139 42.2165 39.0139C43.1165 39.0139 43.8365 38.9339 44.3765 38.7739C44.9165 38.5939 45.5965 38.2239 46.4165 37.6639C46.7365 37.8039 46.9165 38.0439 46.9565 38.3839C45.5765 39.8839 43.9665 40.6439 42.1265 40.6639C39.8265 40.6639 37.9865 39.9439 36.6065 38.5039C35.2265 37.0639 34.5265 35.1139 34.5065 32.6539C34.5265 30.1339 35.2465 28.1739 36.6665 26.7739C38.1065 25.3539 39.8765 24.6439 41.9765 24.6439C43.6765 24.6439 44.9665 25.2239 45.8465 26.3839C46.7465 27.5239 47.1965 29.0739 47.1965 31.0339C47.1965 31.3739 47.1865 31.6339 47.1665 31.8139L46.7465 32.1439L37.6865 32.0539ZM41.9465 25.9339C41.0065 25.9339 40.1365 26.3639 39.3365 27.2239C38.5565 28.0639 38.0465 29.2639 37.8065 30.8239L44.3465 30.4639C44.3465 28.8639 44.1665 27.7139 43.8065 27.0139C43.4665 26.2939 42.8465 25.9339 41.9465 25.9339ZM54.28 30.0439V38.6539L57.19 39.2539C57.25 39.6339 57.2 39.9839 57.04 40.3039C55.24 40.2039 53.82 40.1539 52.78 40.1539C51.98 40.1539 50.76 40.2039 49.12 40.3039C49.06 39.9239 49.08 39.5739 49.18 39.2539C50.3 39.0139 51 38.8139 51.28 38.6539V26.9539L48.79 26.7139C48.73 26.3139 48.78 25.9639 48.94 25.6639C50.6 25.4239 52 25.1539 53.14 24.8539C53.36 24.8539 53.69 24.9639 54.13 25.1839V27.9139L54.16 27.9439C55.64 25.7439 57.16 24.6439 58.72 24.6439C59.52 24.6239 60.18 24.7739 60.7 25.0939C60.76 26.5739 60.56 28.0739 60.1 29.5939C59.6 29.6539 59.15 29.6139 58.75 29.4739L58.33 26.4739C56.67 26.4739 55.32 27.6639 54.28 30.0439ZM63.1799 20.0839C63.1799 19.7039 63.4099 19.3139 63.8699 18.9139C64.3299 18.5139 64.8099 18.3139 65.3099 18.3139C65.8099 18.3139 66.2399 18.5439 66.5999 19.0039C66.9599 19.4439 67.1399 19.8939 67.1399 20.3539C67.1399 20.7539 66.9099 21.1539 66.4499 21.5539C66.0099 21.9339 65.5299 22.1239 65.0099 22.1239C64.5499 22.1239 64.1299 21.9039 63.7499 21.4639C63.3699 21.0039 63.1799 20.5439 63.1799 20.0839ZM67.3199 25.1839V38.6539L69.3299 39.2539C69.3899 39.6339 69.3399 39.9839 69.1799 40.3039C67.3799 40.2039 66.2599 40.1539 65.8199 40.1539C65.2199 40.1539 63.9999 40.2039 62.1599 40.3039C62.0999 39.9239 62.1199 39.5739 62.2199 39.2539C63.3399 38.9939 64.0399 38.7939 64.3199 38.6539V26.9539L61.8299 26.7139C61.7699 26.3139 61.8199 25.9639 61.9799 25.6639C63.6399 25.4239 65.0399 25.1539 66.1799 24.8539C66.5199 24.8739 66.8999 24.9839 67.3199 25.1839ZM72.8711 35.6539L73.1711 38.8339C73.8311 39.1939 74.7411 39.3739 75.9011 39.3739C76.7811 39.3739 77.5211 39.1839 78.1211 38.8039C78.7411 38.4239 79.0511 37.8539 79.0511 37.0939C79.0511 36.4139 78.7511 35.8239 78.1511 35.3239C77.5511 34.8039 76.5211 34.2039 75.0611 33.5239C73.8011 32.9439 72.8711 32.2839 72.2711 31.5439C71.6911 30.8039 71.4011 29.8539 71.4011 28.6939C71.4011 27.3339 71.8911 26.3139 72.8711 25.6339C73.8511 24.9539 75.1311 24.6139 76.7111 24.6139C78.2511 24.6139 79.7111 24.8939 81.0911 25.4539C81.0911 25.5339 81.0911 25.6439 81.0911 25.7839C81.1111 25.9239 81.1211 26.0339 81.1211 26.1139C81.1211 27.2939 80.9311 28.4439 80.5511 29.5639C80.3511 29.6039 80.2011 29.6239 80.1011 29.6239C79.8011 29.6239 79.5011 29.5639 79.2011 29.4439L78.7211 26.2039C78.1011 26.0239 77.4611 25.9339 76.8011 25.9339C75.9811 25.9339 75.2911 26.1039 74.7311 26.4439C74.1911 26.7839 73.9111 27.3339 73.8911 28.0939C73.8911 28.7739 74.1411 29.3539 74.6411 29.8339C75.1411 30.3139 76.0811 30.8839 77.4611 31.5439C79.0811 32.3239 80.2111 33.0639 80.8511 33.7639C81.4911 34.4639 81.8111 35.3439 81.8111 36.4039C81.8111 37.7639 81.2811 38.8339 80.2211 39.6139C79.1811 40.3739 77.8111 40.7539 76.1111 40.7539C74.0111 40.7939 72.3211 40.3939 71.0411 39.5539V39.0439C71.0211 37.7839 71.2011 36.6139 71.5811 35.5339C71.7011 35.5139 71.8011 35.5039 71.8811 35.5039C72.2411 35.5039 72.5711 35.5539 72.8711 35.6539Z" fill="black"/>
<defs>
<linearGradient id="paint0_linear" x1="83.691" y1="6.05419" x2="155.864" y2="72.1" gradientUnits="userSpaceOnUse">
<stop stop-color="#9AAE04"/>
<stop offset="1" stop-color="#FFC107"/>
</linearGradient>
</defs>
</svg>
