<svg width="179" height="80" viewBox="0 0 179 80" fill="none" xmlns="http://www.w3.org/2000/svg">
<path d="M92.4832 19.9998C110.537 -6.60161 171.299 3.05162 173.033 36.2046C172.907 49.7836 159.288 58.5489 159.288 58.5489L166.745 76.9229L145.722 63.9964C123.649 68.1498 105.085 66.4467 93.9748 53.846" stroke="url(#paint0_linear)" stroke-width="4" stroke-linecap="round" stroke-linejoin="round"/>
<path d="M125.031 48.2812C124.661 48.487 124.28 48.6584 123.888 48.7955C123.495 48.9327 122.987 49.047 122.363 49.1384C122.017 46.7841 121.67 44.7155 121.324 42.9327C120.977 41.1498 120.619 39.5155 120.25 38.0298C118.61 38.007 117.005 38.0527 115.434 38.167C113.864 38.2584 112.397 38.407 111.034 38.6127C110.549 39.8012 110.006 41.0241 109.406 42.2812C108.829 43.5384 108.182 44.8641 107.466 46.2584C107.027 46.167 106.611 46.0184 106.219 45.8127C105.826 45.6298 105.445 45.367 105.075 45.0241C107.131 41.4355 108.805 37.927 110.099 34.4984C111.415 31.047 112.686 26.6698 113.91 21.367C114.533 21.3898 115.053 21.4241 115.469 21.4698C115.885 21.5155 116.289 21.5841 116.681 21.6755C118.945 26.0184 120.689 30.167 121.913 34.1212C123.16 38.0755 124.199 42.7955 125.031 48.2812ZM115.365 24.5898C114.811 26.9898 114.245 29.1612 113.667 31.1041C113.113 33.0241 112.501 34.8527 111.831 36.5898C112.94 36.4298 114.152 36.3041 115.469 36.2127C116.785 36.0984 118.206 36.0184 119.73 35.9727C119.153 33.9612 118.518 32.0412 117.825 30.2127C117.132 28.3841 116.312 26.5098 115.365 24.5898ZM133.525 35.6641C135.188 36.8527 136.273 37.8698 136.781 38.7155C137.313 39.5384 137.578 40.4527 137.578 41.4584C137.578 43.0355 137.07 44.3384 136.054 45.367C135.038 46.3955 133.744 46.9098 132.174 46.9098C130.534 46.9098 129.194 46.327 128.155 45.1612C127.139 43.9955 126.63 42.4527 126.63 40.5327C126.977 40.4184 127.335 40.3384 127.704 40.2927C128.097 40.2241 128.478 40.2012 128.848 40.2241C128.801 41.7555 129.067 42.9555 129.645 43.8241C130.245 44.6927 131.1 45.127 132.208 45.127C133.04 45.127 133.698 44.8527 134.183 44.3041C134.691 43.7327 134.945 42.967 134.945 42.007C134.945 41.2298 134.726 40.5098 134.287 39.847C133.848 39.1612 132.901 38.2927 131.446 37.2412C129.737 36.007 128.617 34.9555 128.085 34.087C127.554 33.1955 127.289 32.2127 127.289 31.1384C127.289 29.6984 127.727 28.5555 128.605 27.7098C129.483 26.8412 130.672 26.407 132.174 26.407C133.606 26.407 134.726 26.8184 135.534 27.6412C136.366 28.4641 136.943 29.7784 137.266 31.5841C136.92 31.7441 136.562 31.8698 136.192 31.9612C135.846 32.0298 135.476 32.087 135.084 32.1327C134.899 30.7841 134.564 29.8012 134.079 29.1841C133.617 28.567 132.97 28.2584 132.139 28.2584C131.446 28.2584 130.892 28.487 130.476 28.9441C130.083 29.4012 129.887 30.0184 129.887 30.7955C129.887 31.5955 130.118 32.3384 130.58 33.0241C131.042 33.7098 132.023 34.5898 133.525 35.6641ZM143.019 37.447C143.019 39.1384 143.065 40.7612 143.157 42.3155C143.25 43.8698 143.4 45.4241 143.608 46.9784C143.215 47.0698 142.799 47.1384 142.36 47.1841C141.922 47.2298 141.541 47.2527 141.217 47.2527C140.94 44.5327 140.755 42.3041 140.663 40.567C140.57 38.8298 140.524 37.0127 140.524 35.1155C140.524 32.6012 140.605 30.0641 140.767 27.5041C140.952 24.9441 141.206 22.567 141.529 20.3727C142.037 20.327 142.557 20.327 143.088 20.3727C143.619 20.4184 144.058 20.4984 144.405 20.6127C144.012 23.0355 143.7 25.4355 143.469 27.8127C143.238 30.167 143.1 32.5098 143.053 34.8412C144.693 33.4241 146.079 32.0641 147.211 30.7612C148.366 29.4355 149.601 27.7555 150.918 25.7212C151.264 25.8812 151.588 26.0984 151.888 26.3727C152.211 26.6241 152.488 26.8984 152.719 27.1955C151.541 28.9555 150.421 30.4184 149.359 31.5841C148.319 32.7498 147.049 33.9498 145.548 35.1841C146.587 36.6927 147.696 38.007 148.874 39.127C150.052 40.2241 151.611 41.4241 153.551 42.727C153.158 43.2984 152.823 43.7212 152.546 43.9955C152.292 44.2698 152.015 44.487 151.715 44.647C150.236 43.5041 148.943 42.3498 147.834 41.1841C146.726 39.9955 145.432 38.4184 143.954 36.4527C143.792 36.567 143.631 36.6927 143.469 36.8298C143.331 36.9441 143.18 37.0584 143.019 37.1727C143.019 37.2184 143.019 37.2641 143.019 37.3098C143.019 37.3555 143.019 37.4012 143.019 37.447Z" fill="#9AAE04"/>
<path d="M7.76022 36.633V37.3188C7.76022 39.6045 8.22215 41.3873 9.14602 42.6673C10.093 43.9473 11.3749 44.5873 12.9916 44.5873C14.031 44.5873 14.8625 44.4959 15.4861 44.313C16.1097 44.1073 16.895 43.6845 17.842 43.0445C18.2115 43.2045 18.4194 43.4788 18.4656 43.8673C16.8719 45.5816 15.0126 46.4502 12.8877 46.473C10.2316 46.473 8.10667 45.6502 6.51299 44.0045C4.91931 42.3588 4.11093 40.1302 4.08783 37.3188C4.11093 34.4388 4.94241 32.1987 6.58228 30.5987C8.24525 28.9759 10.2893 28.1645 12.7145 28.1645C14.6777 28.1645 16.1675 28.8273 17.1837 30.153C18.2231 31.4559 18.7427 33.2273 18.7427 35.4673C18.7427 35.8559 18.7312 36.153 18.7081 36.3588L18.2231 36.7359L7.76022 36.633ZM12.6798 29.6388C11.5943 29.6388 10.5896 30.1302 9.6657 31.113C8.76493 32.073 8.17596 33.4445 7.8988 35.2273L15.4515 34.8159C15.4515 32.9873 15.2436 31.673 14.8278 30.873C14.4352 30.0502 13.7192 29.6388 12.6798 29.6388ZM29.009 46.9188L22.1493 30.4616L19.4816 29.7759C19.4123 29.3416 19.4701 28.9416 19.6548 28.5759C21.5026 28.6902 22.9115 28.7473 23.8815 28.7473C24.7361 28.7473 26.2259 28.6902 28.3508 28.5759C28.4201 29.0102 28.397 29.4102 28.2815 29.7759C27.1266 29.9816 26.3298 30.2102 25.891 30.4616L28.8705 38.0045C29.5634 39.7645 30.0484 41.3188 30.3255 42.6673H30.4295C30.8914 40.8845 31.2725 39.593 31.5728 38.793L34.8641 30.4616L32.1271 29.7759C32.0578 29.3416 32.1155 28.9416 32.3003 28.5759C33.9171 28.6902 35.1066 28.7473 35.8688 28.7473C36.7003 28.7473 37.9013 28.6902 39.4719 28.5759C39.5412 29.0102 39.5181 29.4102 39.4026 29.7759C38.1785 29.9816 37.3585 30.2102 36.9428 30.4616L30.5681 46.473C30.083 46.7245 29.5634 46.873 29.009 46.9188ZM43.5219 36.633V37.3188C43.5219 39.6045 43.9838 41.3873 44.9077 42.6673C45.8547 43.9473 47.1365 44.5873 48.7533 44.5873C49.7927 44.5873 50.6241 44.4959 51.2478 44.313C51.8714 44.1073 52.6567 43.6845 53.6036 43.0445C53.9732 43.2045 54.1811 43.4788 54.2272 43.8673C52.6336 45.5816 50.7743 46.4502 48.6494 46.473C45.9932 46.473 43.8683 45.6502 42.2747 44.0045C40.681 42.3588 39.8726 40.1302 39.8495 37.3188C39.8726 34.4388 40.7041 32.1987 42.344 30.5987C44.0069 28.9759 46.051 28.1645 48.4762 28.1645C50.4394 28.1645 51.9291 28.8273 52.9454 30.153C53.9847 31.4559 54.5044 33.2273 54.5044 35.4673C54.5044 35.8559 54.4929 36.153 54.4698 36.3588L53.9847 36.7359L43.5219 36.633ZM48.4415 29.6388C47.356 29.6388 46.3512 30.1302 45.4274 31.113C44.5266 32.073 43.9376 33.4445 43.6605 35.2273L51.2131 34.8159C51.2131 32.9873 51.0052 31.673 50.5895 30.873C50.1969 30.0502 49.4809 29.6388 48.4415 29.6388ZM62.6847 34.3359V44.1759L66.0453 44.8616C66.1146 45.2959 66.0568 45.6959 65.8721 46.0616C63.7934 45.9473 62.1535 45.8902 60.9524 45.8902C60.0286 45.8902 58.6197 45.9473 56.7257 46.0616C56.6564 45.6273 56.6795 45.2273 56.795 44.8616C58.0885 44.5873 58.8968 44.3588 59.2202 44.1759V30.8045L56.3446 30.5302C56.2754 30.073 56.3331 29.673 56.5179 29.3302C58.4349 29.0559 60.0517 28.7473 61.3682 28.4045C61.6223 28.4045 62.0034 28.5302 62.5115 28.7816V31.9016L62.5461 31.9359C64.2553 29.4216 66.0106 28.1645 67.8122 28.1645C68.7361 28.1416 69.4983 28.313 70.0988 28.6788C70.1681 30.3702 69.9371 32.0845 69.4059 33.8216C68.8284 33.8902 68.3088 33.8445 67.8468 33.6845L67.3618 30.2559C65.4448 30.2559 63.8857 31.6159 62.6847 34.3359ZM72.9627 22.953C72.9627 22.5187 73.2283 22.073 73.7595 21.6159C74.2907 21.1587 74.845 20.9302 75.4225 20.9302C75.9999 20.9302 76.4965 21.193 76.9122 21.7187C77.328 22.2216 77.5358 22.7359 77.5358 23.2616C77.5358 23.7187 77.2702 24.1759 76.739 24.633C76.2309 25.0673 75.6765 25.2845 75.076 25.2845C74.5448 25.2845 74.0598 25.033 73.6209 24.5302C73.1821 24.0045 72.9627 23.4787 72.9627 22.953ZM77.7437 28.7816V44.1759L80.0649 44.8616C80.1342 45.2959 80.0765 45.6959 79.8917 46.0616C77.813 45.9473 76.5196 45.8902 76.0114 45.8902C75.3185 45.8902 73.9096 45.9473 71.7847 46.0616C71.7154 45.6273 71.7385 45.2273 71.854 44.8616C73.1474 44.5645 73.9558 44.3359 74.2792 44.1759V30.8045L71.4036 30.5302C71.3343 30.073 71.3921 29.673 71.5769 29.3302C73.4939 29.0559 75.1107 28.7473 76.4272 28.4045C76.8198 28.4273 77.2587 28.553 77.7437 28.7816ZM84.1544 40.7473L84.5009 44.3816C85.2631 44.793 86.314 44.9988 87.6536 44.9988C88.6699 44.9988 89.5244 44.7816 90.2173 44.3473C90.9333 43.913 91.2913 43.2616 91.2913 42.393C91.2913 41.6159 90.9449 40.9416 90.252 40.3702C89.5591 39.7759 88.3696 39.0902 86.6835 38.313C85.2284 37.6502 84.1544 36.8959 83.4615 36.0502C82.7917 35.2045 82.4568 34.1187 82.4568 32.793C82.4568 31.2387 83.0227 30.073 84.1544 29.2959C85.2862 28.5187 86.7644 28.1302 88.589 28.1302C90.3675 28.1302 92.0535 28.4502 93.6472 29.0902C93.6472 29.1816 93.6472 29.3073 93.6472 29.4673C93.6703 29.6273 93.6819 29.753 93.6819 29.8445C93.6819 31.193 93.4624 32.5073 93.0236 33.7873C92.7926 33.833 92.6194 33.8559 92.5039 33.8559C92.1575 33.8559 91.811 33.7873 91.4646 33.6502L90.9102 29.9473C90.1942 29.7416 89.4551 29.6388 88.693 29.6388C87.746 29.6388 86.9491 29.833 86.3024 30.2216C85.6788 30.6102 85.3555 31.2388 85.3324 32.1073C85.3324 32.8845 85.6211 33.5473 86.1985 34.0959C86.7759 34.6445 87.8615 35.2959 89.4551 36.0502C91.326 36.9416 92.6309 37.7873 93.37 38.5873C94.1091 39.3873 94.4787 40.393 94.4787 41.6045C94.4787 43.1588 93.8666 44.3816 92.6425 45.273C91.4415 46.1416 89.8593 46.5759 87.8961 46.5759C85.4709 46.6216 83.5193 46.1645 82.0411 45.2045V44.6216C82.018 43.1816 82.2259 41.8445 82.6647 40.6102C82.8033 40.5873 82.9188 40.5759 83.0111 40.5759C83.4269 40.5759 83.808 40.633 84.1544 40.7473Z" fill="white"/>
<defs>
<linearGradient id="paint0_linear" x1="96.6495" y1="6.91902" x2="179.205" y2="83.2576" gradientUnits="userSpaceOnUse">
<stop stop-color="#9AAE04"/>
<stop offset="1" stop-color="#FFC107"/>
</linearGradient>
</defs>
</svg>
